<svg width="27" height="26" viewBox="0 0 27 26" fill="none" xmlns="http://www.w3.org/2000/svg">
<path fill-rule="evenodd" clip-rule="evenodd" d="M3.27569 8.11298C3.27569 5.21024 5.63627 2.84893 8.5383 2.84893H18.7255C21.6282 2.84893 23.9902 5.21024 23.9902 8.11298V18.3002C23.9902 21.2022 21.6282 23.5635 18.7255 23.5635H8.5383C5.63627 23.5635 3.27569 21.2022 3.27569 18.3002V8.11298ZM8.5383 25.9642H18.7255C22.9511 25.9642 26.3902 22.5257 26.3902 18.3002V8.11298C26.3902 3.8867 22.9511 0.448242 18.7255 0.448242H8.5383C4.31274 0.448242 0.875 3.8867 0.875 8.11298V18.3002C0.875 22.5257 4.31274 25.9642 8.5383 25.9642ZM20.3872 5.00483C19.5614 5.00483 18.8917 5.67447 18.8917 6.50024C18.8917 7.32673 19.5614 7.99639 20.3872 7.99639C21.2136 7.99639 21.8833 7.32673 21.8833 6.50024C21.8833 5.67447 21.2136 5.00483 20.3872 5.00483ZM13.737 17.2309C11.5175 17.2309 9.71204 15.4254 9.71204 13.2052C9.71204 10.9864 11.5175 9.1809 13.737 9.1809C15.9565 9.1809 17.7621 10.9864 17.7621 13.2052C17.7621 15.4254 15.9565 17.2309 13.737 17.2309ZM13.737 6.92201C10.2721 6.92201 7.45385 9.74096 7.45385 13.2052C7.45385 16.6702 10.2721 19.4891 13.737 19.4891C17.202 19.4891 20.021 16.6702 20.021 13.2052C20.021 9.74096 17.202 6.92201 13.737 6.92201Z" fill="#B9B9B9"/>
</svg>
