<svg width="31" height="25" viewBox="0 0 31 25" fill="none" xmlns="http://www.w3.org/2000/svg">
<path d="M30.8732 2.99707C29.8892 3.43284 28.7999 3.69738 27.7377 3.87281C28.2419 3.78931 28.9825 2.89531 29.279 2.53322C29.7323 1.98167 30.1076 1.35293 30.3196 0.674364C30.3468 0.621034 30.3676 0.554368 30.3125 0.51437C30.2452 0.487705 30.2007 0.501736 30.147 0.528401C28.9617 1.15083 27.7349 1.60204 26.4292 1.92132C26.3218 1.94799 26.2409 1.92133 26.1728 1.85537C26.0647 1.73537 25.963 1.62309 25.8484 1.52976C25.2991 1.07224 24.7111 0.713663 24.0472 0.448412C23.177 0.10106 22.2237 -0.0462982 21.2862 0.0126464C20.3724 0.0708892 19.4764 0.323497 18.6664 0.737512C17.8542 1.15363 17.1294 1.73186 16.5522 2.43007C15.9556 3.15144 15.5159 4.00333 15.2903 4.90645C15.0732 5.77798 15.0904 6.6404 15.2236 7.52106C15.243 7.66772 15.2301 7.68736 15.0947 7.66771C9.98969 6.92318 5.75839 5.13379 2.3228 1.29819C2.17383 1.13188 2.09291 1.13189 1.97044 1.31083C0.467139 3.51844 1.19622 7.06493 3.0748 8.80871C3.32547 9.04098 3.58259 9.27326 3.85975 9.48518C3.75805 9.50553 2.50901 9.37289 1.39461 8.80871C1.24564 8.71608 1.17115 8.76871 1.15755 8.93502C1.14394 9.17361 1.16469 9.39324 1.19836 9.65148C1.48627 11.8893 3.06834 13.9594 5.23483 14.767C5.49194 14.873 5.777 14.9663 6.05346 15.0126C5.56 15.1186 5.0515 15.1944 3.63629 15.0856C3.46011 15.0526 3.39279 15.1389 3.46011 15.3045C4.52438 18.1451 6.81978 18.9907 8.53937 19.4714C8.76927 19.5114 8.99988 19.5114 9.23049 19.564C9.21617 19.5843 9.20256 19.5843 9.18895 19.604C8.61886 20.4559 6.64218 21.0895 5.72043 21.4053C4.04668 21.9786 2.22324 22.2369 0.453519 22.0656C0.169905 22.0249 0.11047 22.0284 0.0338372 22.0656C-0.043512 22.1126 0.0238021 22.1793 0.114759 22.2509C0.47429 22.4839 0.839556 22.6895 1.21269 22.8888C2.33641 23.4719 3.50808 23.9371 4.73349 24.269C11.0611 25.9812 18.1901 24.723 22.9414 20.0973C26.6727 16.4645 27.9812 11.4556 27.9812 6.4397C27.9812 6.24392 28.2176 6.13516 28.3572 6.03131C29.3284 5.31696 30.1119 4.46156 30.836 3.50652C30.9978 3.29249 31 3.10162 31 3.02302C31 3.00969 31 2.99707 31 2.99707C31 2.91637 30.9978 2.94093 30.8732 2.99707" fill="#B9B9B9"/>
</svg>
